<svg width="200" height="200" viewBox="0 0 200 200" fill="none" xmlns="http://www.w3.org/2000/svg">
<g clip-path="url(#clip0_11894_4427)">
<path d="M100 200C155.228 200 200 155.228 200 100C200 44.7715 155.228 0 100 0C44.7715 0 0 44.7715 0 100C0 155.228 44.7715 200 100 200Z" fill="#E6F0E3"/>
<path d="M165.134 165.136C201.108 129.163 201.108 70.8379 165.134 34.8643C129.16 -1.1093 70.8356 -1.1093 34.862 34.8643C-1.11157 70.8379 -1.11157 129.163 34.862 165.136C70.8356 201.11 129.16 201.11 165.134 165.136Z" fill="white"/>
<path d="M92.4457 89.7294C89.8129 90.5266 88.5087 93.7107 88.7696 96.2648C88.9094 97.5529 89.4145 98.7742 90.2254 99.7847C91.0363 100.795 92.1191 101.553 93.3463 101.969C94.5704 102.438 95.9186 102.473 97.1652 102.067C97.4578 101.973 97.727 101.818 97.9547 101.612C98.1824 101.405 98.3634 101.153 98.4855 100.871C98.6076 100.589 98.668 100.284 98.6627 99.9769C98.6573 99.6697 98.5864 99.3672 98.4546 99.0896C97.9871 98.0709 96.3828 96.8554 95.2361 97.254C94.0206 97.7051 92.9913 98.5507 92.3129 99.6556C90.4822 102.549 91.3581 106.147 93.1199 108.839C93.6121 109.587 94.8178 108.888 94.3257 108.135C93.2085 106.432 92.3572 104.316 92.7705 102.229C92.9049 101.373 93.272 100.571 93.8319 99.9093C94.3917 99.2479 95.1227 98.7532 95.9448 98.4794L95.4083 98.4056C96.0776 98.691 97.0816 99.0404 97.2637 99.8524C97.4457 100.664 96.4074 100.886 95.7873 100.92C94.9998 100.95 94.2148 100.814 93.4838 100.52C92.7528 100.225 92.0921 99.78 91.5452 99.2126C91.0051 98.6391 90.5999 97.9522 90.3589 97.2022C90.118 96.4521 90.0474 95.6578 90.1524 94.877C90.3345 93.3662 91.2351 91.5256 92.7951 91.0532C93.6514 90.7924 93.2873 89.4489 92.4261 89.7097L92.4457 89.7294Z" fill="#F58652"/>
<path d="M23.6614 80.1082C22.185 80.9301 20.7726 82.4655 20.5167 84.2027C20.2263 86.1712 22.4852 87.2637 23.8435 88.2283C25.2017 89.1929 26.8996 90.6889 26.6732 92.5639C26.5577 93.347 26.1586 94.0604 25.5516 94.5685C24.9446 95.0766 24.1721 95.344 23.3809 95.3198C22.4852 95.2706 22.4852 96.6633 23.3809 96.7126C24.2178 96.7356 25.0449 96.5285 25.7722 96.1137C26.4994 95.6988 27.0988 95.0923 27.5049 94.3602C27.9164 93.6057 28.103 92.749 28.0429 91.8917C27.9827 91.0344 27.6782 90.2122 27.1653 89.5226C25.9891 87.8198 24.1683 86.9045 22.6131 85.62C22.2834 85.3444 21.8996 85.0492 21.8799 84.5816C21.9113 84.1211 22.0659 83.6774 22.3277 83.2972C22.8112 82.4648 23.5166 81.7833 24.3651 81.3287C25.1525 80.8907 24.4488 79.685 23.6614 80.123V80.1082Z" fill="#FCB353"/>
<path d="M176.496 83.6811C177.736 86.058 177.928 89.1388 176.068 91.2598C174.528 93.0216 171.806 93.5679 169.941 91.9439C169.341 91.4173 168.16 89.5078 169.626 89.2765C170.704 89.1043 171.663 90.0836 172.126 90.9399C173.228 92.9872 172.81 95.6004 172.037 97.6771C171.032 100.327 169.156 102.557 166.718 104.001C166.639 104.047 166.57 104.108 166.515 104.181C166.459 104.254 166.419 104.337 166.396 104.426C166.373 104.514 166.368 104.606 166.38 104.697C166.393 104.787 166.423 104.874 166.469 104.953C166.515 105.032 166.577 105.101 166.649 105.156C166.722 105.211 166.805 105.252 166.894 105.275C166.982 105.298 167.074 105.303 167.165 105.291C167.255 105.278 167.342 105.248 167.421 105.202C170.193 103.552 172.309 100.994 173.41 97.9626C174.395 95.2608 174.69 91.7323 172.741 89.3701C171.86 88.3071 170.32 87.5147 168.937 88.0216C167.293 88.6269 167.288 90.6053 168.091 91.8947C169.724 94.5325 173.479 95.0098 175.92 93.2578C179.257 90.8612 179.493 86.4025 177.702 82.9773C177.284 82.1801 176.078 82.8888 176.496 83.6811Z" fill="#4C8DCB"/>
<path d="M54.6848 163.839C56.7917 162.881 59.0539 162.311 61.3629 162.155C61.8893 162.054 62.4341 162.118 62.923 162.338C63.2877 162.613 63.5758 162.977 63.7596 163.396C64.1624 164.253 64.6348 165.076 65.172 165.856C66.294 167.333 67.923 168.489 69.8275 168.553C70.6919 168.605 71.5532 168.409 72.3094 167.986C73.0655 167.564 73.6849 166.934 74.0942 166.171C74.4781 165.364 73.2773 164.655 72.8885 165.463C72.17 166.978 70.3098 167.485 68.7891 166.939C66.9092 166.299 65.9299 164.582 65.0883 162.918C64.7535 162.108 64.1577 161.432 63.3954 160.999C62.4702 160.561 61.358 160.718 60.3689 160.837C58.1559 161.093 55.9971 161.696 53.9712 162.623C53.1543 162.992 53.8629 164.193 54.675 163.824L54.6848 163.839Z" fill="#F58652"/>
<path d="M103.524 160.212C101.742 159.754 100.428 161.353 99.9115 162.874C99.2373 164.842 99.3258 167.067 99.2865 169.139C99.2471 171.107 99.1339 173.238 98.1349 175.015C97.3032 176.491 95.6251 177.771 93.8485 177.475C92.9676 177.338 92.5886 178.681 93.4745 178.819C94.3429 178.943 95.2286 178.857 96.0568 178.568C96.885 178.278 97.6315 177.794 98.2333 177.155C99.5818 175.812 100.202 173.962 100.472 172.106C100.763 170.049 100.62 167.972 100.778 165.91C100.806 164.882 101.013 163.866 101.388 162.908C101.688 162.249 102.313 161.324 103.155 161.54C103.327 161.573 103.506 161.54 103.655 161.447C103.805 161.354 103.913 161.209 103.96 161.039C104.006 160.87 103.987 160.689 103.907 160.533C103.826 160.377 103.689 160.257 103.524 160.197V160.212Z" fill="#FCB353"/>
<path d="M116.732 153.474C118.384 155.887 119.5 158.626 120.005 161.506C120.056 161.684 120.174 161.836 120.335 161.928C120.496 162.02 120.687 162.045 120.866 161.998C121.043 161.945 121.193 161.826 121.285 161.666C121.376 161.506 121.403 161.316 121.358 161.137C120.824 158.137 119.658 155.285 117.938 152.771C117.446 152.032 116.225 152.731 116.737 153.474H116.732Z" fill="#F58652"/>
<path d="M112.367 103.73C115.789 103.756 119.123 104.818 121.929 106.777C122.667 107.269 123.366 106.078 122.633 105.571C119.614 103.486 116.037 102.357 112.367 102.333C112.182 102.333 112.004 102.406 111.873 102.537C111.742 102.668 111.668 102.846 111.668 103.031C111.668 103.217 111.742 103.395 111.873 103.526C112.004 103.657 112.182 103.73 112.367 103.73Z" fill="#FCB353"/>
<path d="M117.323 122.746C118.907 122.746 118.907 120.285 117.323 120.285C115.738 120.285 115.738 122.746 117.323 122.746Z" fill="#FCB353"/>
<path d="M111.609 136.014C113.194 136.014 113.194 133.553 111.609 133.553C110.025 133.553 110.025 136.014 111.609 136.014Z" fill="#FCB353"/>
<path d="M101.186 122.746C102.771 122.746 102.771 120.285 101.186 120.285C99.6014 120.285 99.6014 122.746 101.186 122.746Z" fill="#FCB353"/>
<path d="M145.418 105.832C147.003 105.832 147.008 103.371 145.418 103.371C143.829 103.371 143.834 105.832 145.418 105.832Z" fill="#FCB353"/>
<path d="M131.525 131.378C133.11 131.378 133.11 128.917 131.525 128.917C129.941 128.917 129.941 131.378 131.525 131.378Z" fill="#FCB353"/>
<path d="M86.9735 157.126C87.3175 157.127 87.654 157.026 87.9407 156.836C88.2274 156.646 88.4514 156.376 88.5846 156.058C88.7178 155.741 88.7541 155.392 88.689 155.054C88.6239 154.716 88.4603 154.406 88.2189 154.161C87.9774 153.916 87.6688 153.748 87.332 153.678C86.9953 153.608 86.6454 153.64 86.3264 153.768C86.0075 153.897 85.7338 154.117 85.5398 154.401C85.3458 154.685 85.2402 155.02 85.2363 155.364C85.2427 155.824 85.4283 156.264 85.7536 156.589C86.079 156.914 86.5184 157.1 86.9785 157.106L86.9735 157.126Z" fill="#F58652"/>
<path d="M89.9851 39.3504C88.5087 40.1722 87.0963 41.7077 86.8404 43.4449C86.5501 45.4134 88.8089 46.5059 90.1623 47.4705C91.5156 48.435 93.2233 49.9311 92.9969 51.8061C92.8824 52.5892 92.4833 53.3027 91.876 53.8102C91.2686 54.3177 90.4956 54.5836 89.7046 54.5571C88.8089 54.5128 88.8089 55.9055 89.7046 55.9547C90.5414 55.9773 91.3684 55.7699 92.0955 55.3551C92.8226 54.9404 93.4221 54.3341 93.8286 53.6024C94.2406 52.8477 94.4271 51.9906 94.366 51.133C94.305 50.2754 93.9989 49.4534 93.4841 48.7648C92.3129 47.062 90.492 46.1466 88.9369 44.8622C88.7475 44.751 88.5838 44.6011 88.4566 44.4221C88.3293 44.2431 88.2414 44.0392 88.1987 43.8238C88.2341 43.3633 88.3903 42.9203 88.6514 42.5394C89.1337 41.706 89.8394 41.0242 90.6888 40.5709C91.4713 40.1329 90.7676 38.9272 89.9851 39.3652V39.3504Z" fill="#FCB353"/>
<path d="M120.079 39.6703C121.556 36.4277 123.846 33.6221 126.727 31.5256C126.884 31.4295 126.998 31.2766 127.044 31.0987C127.091 30.9208 127.067 30.7317 126.978 30.5709C126.884 30.4122 126.731 30.2969 126.552 30.2499C126.374 30.203 126.184 30.2281 126.023 30.3199C122.934 32.5369 120.47 35.5157 118.873 38.9666C118.784 39.1274 118.76 39.3165 118.807 39.4943C118.853 39.6722 118.967 39.8252 119.124 39.9213C119.284 40.0131 119.474 40.0382 119.653 39.9913C119.831 39.9443 119.984 39.829 120.079 39.6703Z" fill="#F58652"/>
<path d="M174.129 77.9429C175.608 74.7 177.898 71.8931 180.778 69.7933C180.933 69.6964 181.046 69.5434 181.093 69.3659C181.14 69.1884 181.117 68.9997 181.028 68.8386C180.933 68.6807 180.78 68.5665 180.601 68.5204C180.423 68.4744 180.233 68.5003 180.074 68.5925C176.984 70.8095 174.521 73.7883 172.923 77.2392C172.834 77.4 172.81 77.5891 172.857 77.767C172.904 77.9448 173.017 78.0978 173.174 78.1939C173.334 78.2857 173.524 78.3109 173.703 78.2639C173.882 78.2169 174.035 78.1017 174.129 77.9429Z" fill="#F58652"/>
<path d="M81.0238 20.2855C82.6036 20.2855 82.6085 17.8248 81.0238 17.8248C79.4392 17.8248 79.4343 20.2855 81.0238 20.2855Z" fill="#FCB353"/>
<path d="M107.775 38.1595C108.121 38.1595 108.459 38.0569 108.746 37.8647C109.034 37.6725 109.258 37.3994 109.39 37.0799C109.522 36.7604 109.556 36.4088 109.488 36.0698C109.421 35.7308 109.254 35.4195 109.009 35.1754C108.764 34.9312 108.452 34.7652 108.113 34.6984C107.774 34.6315 107.423 34.6668 107.103 34.7998C106.784 34.9328 106.512 35.1575 106.32 35.4454C106.129 35.7334 106.027 36.0716 106.028 36.4174C106.036 36.8779 106.223 37.3173 106.549 37.6425C106.875 37.9677 107.315 38.1532 107.775 38.1595Z" fill="#F58652"/>
<path d="M104.646 20.9547C105.989 20.9547 105.994 18.8632 104.646 18.8632C103.297 18.8632 103.297 20.9547 104.646 20.9547Z" fill="#4C8DCB"/>
<path d="M73.6222 38.0315C74.9706 38.0315 74.9706 35.9399 73.6222 35.9399C72.2737 35.9399 72.2737 38.0315 73.6222 38.0315Z" fill="#4C8DCB"/>
<path d="M82.3477 83.4695C83.9323 83.4695 83.9323 81.0089 82.3477 81.0089C80.763 81.0089 80.763 83.4695 82.3477 83.4695Z" fill="#FCB353"/>
<path d="M85.1918 66.0532C85.5376 66.0541 85.8758 65.9525 86.1638 65.7611C86.4517 65.5698 86.6764 65.2973 86.8094 64.9781C86.9424 64.659 86.9777 64.3075 86.9108 63.9683C86.844 63.6291 86.678 63.3173 86.4339 63.0725C86.1897 62.8277 85.8784 62.6608 85.5394 62.593C85.2004 62.5252 84.8488 62.5595 84.5293 62.6916C84.2098 62.8237 83.9367 63.0476 83.7445 63.335C83.5523 63.6224 83.4497 63.9604 83.4497 64.3061C83.456 64.7667 83.6415 65.2066 83.9667 65.5327C84.2919 65.8589 84.7313 66.0455 85.1918 66.0532Z" fill="#F58652"/>
<path d="M68.6861 88.1201C70.0345 88.1201 70.0345 86.0286 68.6861 86.0286C67.3377 86.0286 67.3377 88.1201 68.6861 88.1201Z" fill="#4C8DCB"/>
<path d="M100.281 95.2362C101.624 95.2362 101.629 93.1447 100.281 93.1447C98.9323 93.1447 98.9274 95.2362 100.281 95.2362Z" fill="#4C8DCB"/>
<path d="M91.3137 28.0119C80.1088 28.0124 69.2202 31.7276 60.352 38.5763C51.4837 45.425 45.1362 55.0205 42.3029 65.8613H30.9053L48.8925 89.9115L66.8797 65.8711H57.7704C59.5875 61.0943 62.404 56.7609 66.0315 53.1608C69.659 49.5607 74.0136 46.7771 78.804 44.9962C83.5944 43.2154 88.7099 42.4784 93.8082 42.8347C98.9064 43.191 103.87 44.6322 108.366 47.062C110.551 42.692 112.957 38.4498 115.497 34.2668V34.1241C108.075 30.0939 99.7594 27.9922 91.3137 28.0119Z" fill="#7ABA77"/>
<path d="M112.2 164.09C123.404 164.085 134.292 160.368 143.16 153.521C152.028 146.673 158.378 137.079 161.216 126.24H172.613L154.626 102.215L136.639 126.26H145.768C143.947 131.033 141.127 135.363 137.498 138.958C133.869 142.554 129.514 145.334 124.724 147.111C119.934 148.888 114.82 149.621 109.723 149.262C104.627 148.903 99.666 147.46 95.1724 145.03C92.9873 149.4 90.5808 153.642 88.0464 157.825V157.968C95.4579 161.999 103.763 164.104 112.2 164.09Z" fill="#7ABA77"/>
<path d="M151.46 93.8555C166.026 87.8218 172.944 71.122 166.91 56.5554C160.876 41.9888 144.177 35.0715 129.61 41.1052C115.043 47.1389 108.126 63.8387 114.16 78.4053C120.193 92.9719 136.893 99.8891 151.46 93.8555Z" fill="#F4BC42"/>
<path d="M162.637 71.077C164.617 58.8756 156.332 47.3787 144.13 45.3981C131.929 43.4176 120.432 51.7032 118.451 63.9047C116.471 76.1062 124.756 87.603 136.958 89.5836C149.159 91.5642 160.656 83.2785 162.637 71.077Z" fill="#D98843"/>
<path d="M159.708 70.6015C161.426 60.0178 154.239 50.0453 143.655 48.3273C133.071 46.6093 123.099 53.7964 121.381 64.3802C119.663 74.9639 126.85 84.9364 137.434 86.6544C148.017 88.3724 157.99 81.1853 159.708 70.6015Z" fill="#F8974A"/>
<path d="M138.77 52.3032V50.2609H142.323V52.3032C145.389 52.9282 146.959 55.2855 146.959 59.0158V59.8918H142.874V58.75C142.874 56.7815 142.087 56.0433 140.714 56.0433C139.341 56.0433 138.553 56.7865 138.553 58.75C138.553 64.4046 146.998 64.6556 146.998 72.5296C146.998 76.2599 145.389 78.6565 142.323 79.2865V81.2845H138.789V79.2815C135.689 78.6516 134.119 76.255 134.119 72.5247V70.6398H138.204V72.8002C138.204 74.7687 139.065 75.4725 140.438 75.4725C141.811 75.4725 142.677 74.7638 142.677 72.8002C142.677 67.1457 134.237 66.8701 134.237 59.0207C134.218 55.3249 135.748 52.9676 138.77 52.3032Z" fill="#FFDC98"/>
<path d="M55.9349 153.125C71.7017 153.125 84.4832 140.344 84.4832 124.577C84.4832 108.81 71.7017 96.0286 55.9349 96.0286C40.1682 96.0286 27.3867 108.81 27.3867 124.577C27.3867 140.344 40.1682 153.125 55.9349 153.125Z" fill="#F4BC42"/>
<path d="M55.9351 146.959C68.2963 146.959 78.317 136.938 78.317 124.577C78.317 112.216 68.2963 102.195 55.9351 102.195C43.5739 102.195 33.5532 112.216 33.5532 124.577C33.5532 136.938 43.5739 146.959 55.9351 146.959Z" fill="#D98843"/>
<path d="M55.9349 143.991C66.6571 143.991 75.3492 135.299 75.3492 124.577C75.3492 113.854 66.6571 105.162 55.9349 105.162C45.2126 105.162 36.5205 113.854 36.5205 124.577C36.5205 135.299 45.2126 143.991 55.9349 143.991Z" fill="#F8974A"/>
<path d="M65.448 132.692L57.1262 130.911L50.9402 136.752L50.0691 128.287L42.5986 124.208L50.3791 120.763L51.949 112.397L57.6331 118.73L66.073 117.643L61.8014 125.005L65.448 132.692Z" fill="#FCB353"/>
</g>
<defs>
<clipPath id="clip0_11894_4427">
<rect width="200" height="200" fill="white"/>
</clipPath>
</defs>
</svg>
