<svg width="189" height="50" viewBox="0 0 189 50" fill="none" xmlns="http://www.w3.org/2000/svg">
<path d="M179.481 17.6955V36.5145C179.481 37.8253 179.785 38.785 180.394 39.3935C181.049 39.9553 182.126 40.2362 183.624 40.2362H188.188V48.5222H182.009C173.723 48.5222 169.58 44.4962 169.58 36.4443V17.6955H164.945V9.62017H169.58V0H179.481V9.62017H188.188V17.6955H179.481Z" fill="#FB6012"/>
<path d="M160.945 9.62018V48.5222H151.044V43.6068C149.78 45.292 148.119 46.6262 146.059 47.6093C144.046 48.5456 141.846 49.0137 139.458 49.0137C136.415 49.0137 133.723 48.3817 131.383 47.1178C129.042 45.807 127.193 43.911 125.835 41.4299C124.525 38.902 123.869 35.9059 123.869 32.4417V9.62018H133.7V31.0373C133.7 34.127 134.472 36.5145 136.017 38.1998C137.562 39.8383 139.669 40.6575 142.337 40.6575C145.052 40.6575 147.182 39.8383 148.727 38.1998C150.272 36.5145 151.044 34.127 151.044 31.0373V9.62018H160.945Z" fill="#FB6012"/>
<path d="M98.184 7V14.0854C91.0353 14.4316 85.3007 20.1661 84.9545 27.3149H77.8691C78.2234 16.2554 87.1246 7.3543 98.184 7Z" fill="#FB6012"/>
<path d="M99.5543 7V14.0854C106.703 14.4316 112.438 20.1661 112.784 27.3149H119.869C119.515 16.2554 110.614 7.35432 99.5543 7Z" fill="#FB6012"/>
<path d="M119.869 28.6851H112.784C112.438 35.8339 106.703 41.5684 99.5543 41.9146V49C110.614 48.6457 119.515 39.7446 119.869 28.6851Z" fill="#FB6012"/>
<path d="M98.184 49V41.9146C91.0353 41.5684 85.3007 35.8339 84.9545 28.6851H77.8691C77.9864 32.345 79.0396 35.7685 80.7973 38.7241L78.0791 48.2378C77.9817 48.5786 78.2928 48.8957 78.6354 48.8048L88.3918 46.2163C91.2906 47.8872 94.6256 48.886 98.184 49Z" fill="#FB6012"/>
<path d="M86.3266 27.3149C86.6702 20.9231 91.7923 15.8011 98.184 15.4575V24.1778C96.589 24.4618 95.331 25.7198 95.047 27.3149H86.3266Z" fill="#FB6012"/>
<path d="M102.691 27.3149C102.407 25.7198 101.149 24.4618 99.5543 24.1778V15.4575C105.946 15.8011 111.068 20.9231 111.412 27.3149H102.691Z" fill="#FB6012"/>
<path d="M102.691 28.6851H111.412C111.068 35.0769 105.946 40.199 99.5543 40.5425V31.8222C101.149 31.5382 102.407 30.2802 102.691 28.6851Z" fill="#FB6012"/>
<path d="M98.184 31.8222V40.5425C91.7923 40.199 86.6702 35.0769 86.3266 28.6851H95.047C95.331 30.2802 96.589 31.5382 98.184 31.8222Z" fill="#FB6012"/>
<path d="M96.357 28C96.357 26.6126 97.4817 25.4878 98.8692 25.4878C100.257 25.4878 101.381 26.6126 101.381 28C101.381 29.3874 100.257 30.5122 98.8692 30.5122C97.4817 30.5122 96.357 29.3874 96.357 28Z" fill="#FB6012"/>
<path d="M36.3013 29.0712C36.3013 25.0452 37.1205 21.5342 38.759 18.5381C40.3975 15.4953 42.6679 13.1546 45.5703 11.5161C48.4728 9.83084 51.7965 8.98819 55.5416 8.98819C60.3634 8.98819 64.3425 10.2053 67.479 12.6396C70.6624 15.0271 72.7924 18.3977 73.8691 22.7514H63.2658C62.7041 21.0661 61.7444 19.7553 60.3868 18.819C59.076 17.8359 57.4376 17.3444 55.4714 17.3444C52.6626 17.3444 50.4389 18.3743 48.8005 20.4341C47.162 22.4471 46.3428 25.3261 46.3428 29.0712C46.3428 32.7694 47.162 35.6485 48.8005 37.7083C50.4389 39.7212 52.6626 40.7277 55.4714 40.7277C59.4505 40.7277 62.0487 38.9488 63.2658 35.391H73.8691C72.7924 39.6042 70.6624 42.9514 67.479 45.4325C64.2957 47.9136 60.3166 49.1541 55.5416 49.1541C51.7965 49.1541 48.4728 48.3349 45.5703 46.6964C42.6679 45.0112 40.3975 42.6705 38.759 39.6744C37.1205 36.6315 36.3013 33.0971 36.3013 29.0712Z" fill="#FB6012"/>
<path d="M16.9933 49.1541C13.81 49.1541 10.9544 48.5924 8.42643 47.4689C5.8985 46.2985 3.88552 44.7303 2.38749 42.7641C0.93627 40.7979 0.140441 38.6211 0 36.2336H9.90105C10.0883 37.7317 10.8139 38.9722 12.0779 39.9553C13.3887 40.9384 15.0037 41.4299 16.9231 41.4299C18.7956 41.4299 20.2468 41.0554 21.2767 40.3064C22.3534 39.5574 22.8918 38.5977 22.8918 37.4274C22.8918 36.1634 22.2364 35.2271 20.9256 34.6186C19.6617 33.9632 17.6253 33.261 14.8165 32.512C11.914 31.8098 9.52654 31.0841 7.654 30.3351C5.82828 29.5861 4.23662 28.4392 2.87903 26.8943C1.56825 25.3495 0.912863 23.2663 0.912863 20.6447C0.912863 18.4913 1.52144 16.5252 2.73859 14.7462C4.00255 12.9673 5.78146 11.5629 8.07532 10.533C10.416 9.50314 13.1546 8.98819 16.2911 8.98819C20.9256 8.98819 24.6239 10.1585 27.3859 12.4992C30.1479 14.7931 31.6693 17.9062 31.9502 21.8385H22.5407C22.4002 20.2936 21.7449 19.0765 20.5745 18.187C19.451 17.2508 17.9296 16.7826 16.0102 16.7826C14.2313 16.7826 12.8503 17.1103 11.8672 17.7657C10.9309 18.4211 10.4628 19.334 10.4628 20.5043C10.4628 21.8151 11.1182 22.8216 12.429 23.5238C13.7398 24.1792 15.7761 24.858 18.5381 25.5602C21.3469 26.2624 23.6642 26.988 25.4899 27.737C27.3157 28.486 28.8839 29.6563 30.1947 31.248C31.5523 32.7928 32.2545 34.8526 32.3013 37.4274C32.3013 39.6744 31.6693 41.6874 30.4053 43.4663C29.1882 45.2452 27.4093 46.6496 25.0686 47.6795C22.7748 48.6626 20.083 49.1541 16.9933 49.1541Z" fill="#FB6012"/>
</svg>
