<svg width="14" height="14" viewBox="0 0 14 14" fill="none" xmlns="http://www.w3.org/2000/svg">
<path d="M6.14396 1.53448C6.41338 0.705303 7.58645 0.705303 7.85586 1.53448L8.81848 4.4971C8.93896 4.86792 9.28452 5.11898 9.67443 5.11898H12.7895C13.6614 5.11898 14.0239 6.23464 13.3185 6.7471L10.7984 8.5781C10.4829 8.80728 10.3509 9.21351 10.4714 9.58433L11.434 12.5469C11.7034 13.3761 10.7544 14.0656 10.0491 13.5532L7.52892 11.7222C7.21348 11.493 6.78634 11.493 6.47091 11.7222L3.95075 13.5532C3.24541 14.0656 2.29638 13.3761 2.5658 12.5469L3.52841 9.58433C3.6489 9.21351 3.5169 8.80728 3.20146 8.5781L0.681312 6.7471C-0.0240301 6.23464 0.338468 5.11898 1.21032 5.11898H4.3254C4.7153 5.11898 5.06086 4.86792 5.18135 4.4971L6.14396 1.53448Z" fill="#FFB701"/>
</svg>
